<svg width="40" height="40" viewBox="0 0 40 40" fill="none" xmlns="http://www.w3.org/2000/svg">
  <circle cx="20" cy="20" r="20" fill="#0065DD"/>
  <path fill-rule="evenodd" clip-rule="evenodd" d="M23.003 19.25C24.798 19.25 26.253 17.7949 26.253 16C26.253 14.2051 24.798 12.75 23.003 12.75C21.2081 12.75 19.753 14.2051 19.753 16C19.753 17.7949 21.2081 19.25 23.003 19.25ZM23.003 21.25C25.9025 21.25 28.253 18.8995 28.253 16C28.253 13.1005 25.9025 10.75 23.003 10.75C20.1035 10.75 17.753 13.1005 17.753 16C17.753 17.0875 18.0837 18.0978 18.65 18.9358L13.5429 24.0429C13.1524 24.4334 13.1524 25.0666 13.5429 25.4571C13.9334 25.8476 14.5666 25.8476 14.9571 25.4571L16.0013 24.4129L17.0459 25.4575C17.4365 25.848 18.0696 25.848 18.4601 25.4575C18.8507 25.067 18.8507 24.4338 18.4601 24.0433L17.4155 22.9987L20.0636 20.3506C20.9023 20.9184 21.914 21.25 23.003 21.25Z" fill="white"/>
</svg>
