<svg width="20" height="20" viewBox="0 0 20 20" fill="none" xmlns="http://www.w3.org/2000/svg">
  <path fill-rule="evenodd" clip-rule="evenodd" d="M14.583 8.16671C14.583 9.68549 13.3518 10.9167 11.833 10.9167C11.4085 10.9167 11.0064 10.8205 10.6474 10.6487L9.4627 11.8334L9.73119 12.1019C10.0892 12.4598 10.0892 13.0402 9.73119 13.3982C9.37321 13.7562 8.79281 13.7562 8.43483 13.3982L8.16634 13.1297L7.89786 13.3982C7.53987 13.7562 6.95947 13.7562 6.60149 13.3982C6.24351 13.0402 6.24351 12.4598 6.60149 12.1019L9.35101 9.35234C9.17921 8.99334 9.08301 8.59126 9.08301 8.16671C9.08301 6.64792 10.3142 5.41671 11.833 5.41671C13.3518 5.41671 14.583 6.64792 14.583 8.16671ZM12.7497 8.16671C12.7497 8.67297 12.3393 9.08337 11.833 9.08337C11.3267 9.08337 10.9163 8.67297 10.9163 8.16671C10.9163 7.66045 11.3267 7.25004 11.833 7.25004C12.3393 7.25004 12.7497 7.66045 12.7497 8.16671Z" fill="#909EBB"/>
  <path fill-rule="evenodd" clip-rule="evenodd" d="M19.1663 10C19.1663 15.0626 15.0623 19.1667 9.99967 19.1667C4.93706 19.1667 0.833008 15.0626 0.833008 10C0.833008 4.93743 4.93706 0.833374 9.99967 0.833374C15.0623 0.833374 19.1663 4.93743 19.1663 10ZM17.333 10C17.333 14.0501 14.0498 17.3334 9.99967 17.3334C5.94959 17.3334 2.66634 14.0501 2.66634 10C2.66634 5.94995 5.94959 2.66671 9.99967 2.66671C14.0498 2.66671 17.333 5.94995 17.333 10Z" fill="#909EBB"/>
</svg>
