<svg width="24" height="24" viewBox="0 0 24 24" fill="none" xmlns="http://www.w3.org/2000/svg">
<path d="M15.5625 17.625H12.4375C12.2648 17.625 12.125 17.7648 12.125 17.9375V18.5625C12.125 18.7352 12.2648 18.875 12.4375 18.875H15.5625C15.7352 18.875 15.875 18.7352 15.875 18.5625V17.9375C15.875 17.7648 15.7352 17.625 15.5625 17.625ZM7.125 11.375V15.125C7.125 15.4703 7.40469 15.75 7.75 15.75H15.25C15.5953 15.75 15.875 15.4703 15.875 15.125V11.375C15.875 11.0297 15.5953 10.75 15.25 10.75H7.75C7.40469 10.75 7.125 11.0297 7.125 11.375ZM8.375 12H14.625V14.5H8.375V12ZM18.4465 5.82734L15.1695 2.55078C14.818 2.19922 14.3414 2 13.8457 2H5.87461C4.83984 2.00391 4 2.84375 4 3.87852V20.1254C4 21.1602 4.83984 22 5.87461 22H17.1223C18.1574 22 19 21.1602 19 20.1254V7.15508C19 6.65938 18.798 6.17891 18.4465 5.82734V5.82734ZM13.998 4.03086L16.9703 7.00273H13.998V4.03086V4.03086ZM17.125 20.1254H5.87461V3.87852H12.1234V7.94023C12.1234 8.45977 12.5414 8.87734 13.0609 8.87734H17.125V20.1254ZM7.4375 6.375H10.5625C10.7352 6.375 10.875 6.23516 10.875 6.0625V5.4375C10.875 5.26484 10.7352 5.125 10.5625 5.125H7.4375C7.26484 5.125 7.125 5.26484 7.125 5.4375V6.0625C7.125 6.23516 7.26484 6.375 7.4375 6.375ZM7.4375 8.875H10.5625C10.7352 8.875 10.875 8.73516 10.875 8.5625V7.9375C10.875 7.76484 10.7352 7.625 10.5625 7.625H7.4375C7.26484 7.625 7.125 7.76484 7.125 7.9375V8.5625C7.125 8.73516 7.26484 8.875 7.4375 8.875Z" fill="#909EBB"/>
</svg>
